# xmcd
#
# Track frame offsets: 
#        150
#        17682
#        34988
#        53281
#        68513
#        84806
#        103312
#        121495
#        137492
#        156095
#
# Disc length: 2326 seconds
#
# Revision: 0
# Processed by: cddbd v1.5.2PL0 Copyright (c) Steve Scherf et al.
# Submitted via: ExactAudioCopy v1.1
#
DISCID=7309140a
DTITLE=นุ้ย สุวีณา อาร์สยาม - ชุดที่ 3 ไม่อยากใช้แฟนร่วมกับใคร
DYEAR=2012
DGENRE=Country
TTITLE0=ไม่มีคู่แค่เหงา ไม่มีเขาแค่โสด
TTITLE1=เธอมากรัก แต่ฉันรักมาก
TTITLE2=แอบแช่ง
TTITLE3=ยังแข็งอยู่ไหม
TTITLE4=กลับมาทำบื้ออะไร
TTITLE5=ไม่อยากใช้แฟนร่วมกับใคร
TTITLE6=คนไม่เหลือใจ
TTITLE7=เดี๋ยวเหอะ
TTITLE8=คิดไม่ออกบอกนุ้ย สุวีณา
TTITLE9=สัญญาที่สวนยาง
EXTD=
EXTT0=
EXTT1=
EXTT2=
EXTT3=
EXTT4=
EXTT5=
EXTT6=
EXTT7=
EXTT8=
EXTT9=
PLAYORDER=
